<svg id="eai96hncsfeu1" xmlns="http://www.w3.org/2000/svg" xmlns:xlink="http://www.w3.org/1999/xlink" viewBox="0 0 784.200000 782.300000" shape-rendering="geometricPrecision" text-rendering="geometricPrecision" width="784.200000" height="782.300000"><style><![CDATA[#eai96hncsfeu26_tr {animation: eai96hncsfeu26_tr__tr 7000ms linear infinite normal forwards}@keyframes eai96hncsfeu26_tr__tr { 0% {transform: translate(392.100006px,391.200012px) rotate(0deg)} 100% {transform: translate(392.100006px,391.200012px) rotate(360deg)} }]]></style><defs><radialGradient id="eai96hncsfeu6-fill" cx="0" cy="0" r="386.670000" spreadMethod="pad" gradientUnits="userSpaceOnUse" gradientTransform="matrix(1 0 0 -1 -0.04000000000002 -0.02999999999997)"><stop id="eai96hncsfeu6-fill-0" offset="0%" stop-color="rgb(0,104,56)"/><stop id="eai96hncsfeu6-fill-1" offset="13%" stop-color="rgb(6,82,39)"/><stop id="eai96hncsfeu6-fill-2" offset="31%" stop-color="rgb(12,59,22)"/><stop id="eai96hncsfeu6-fill-3" offset="50%" stop-color="rgb(17,43,10)"/><stop id="eai96hncsfeu6-fill-4" offset="71%" stop-color="rgb(19,34,2)"/><stop id="eai96hncsfeu6-fill-5" offset="100%" stop-color="rgb(20,31,0)"/></radialGradient><linearGradient id="eai96hncsfeu28-fill" x1="646.716200" y1="259.906900" x2="34.399100" y2="173.854300" spreadMethod="pad" gradientUnits="userSpaceOnUse"><stop id="eai96hncsfeu28-fill-0" offset="0%" stop-color="rgb(0,169,56)"/><stop id="eai96hncsfeu28-fill-1" offset="0%" stop-color="rgba(0,168,56,0.98)"/><stop id="eai96hncsfeu28-fill-2" offset="13%" stop-color="rgba(0,151,56,0.72)"/><stop id="eai96hncsfeu28-fill-3" offset="25%" stop-color="rgba(0,137,56,0.5)"/><stop id="eai96hncsfeu28-fill-4" offset="38%" stop-color="rgba(0,125,56,0.32)"/><stop id="eai96hncsfeu28-fill-5" offset="51%" stop-color="rgba(0,116,56,0.18)"/><stop id="eai96hncsfeu28-fill-6" offset="65%" stop-color="rgba(0,109,56,0.08)"/><stop id="eai96hncsfeu28-fill-7" offset="81%" stop-color="rgba(0,105,56,0.02)"/><stop id="eai96hncsfeu28-fill-8" offset="100%" stop-color="rgba(0,104,56,0)"/></linearGradient></defs><g id="eai96hncsfeu2"><g id="eai96hncsfeu3"><g id="eai96hncsfeu4"><circle id="eai96hncsfeu5" r="386.700000" transform="matrix(1 0 0 1 393.10000000000002 391.19999999999999)" fill="rgb(57,181,74)" stroke="rgb(57,181,74)" stroke-width="9" stroke-miterlimit="10"/><circle id="eai96hncsfeu6" r="386.700000" transform="matrix(1 0 0 1 393.10000000000002 391.19999999999999)" fill="url(#eai96hncsfeu6-fill)" stroke="rgb(57,181,74)" stroke-width="2" stroke-miterlimit="10"/><circle id="eai96hncsfeu7" r="193.100000" transform="matrix(1 0 0 1 398.19999999999999 391.19999999999999)" fill="none" stroke="rgb(57,181,74)" stroke-width="5" stroke-miterlimit="10"/><circle id="eai96hncsfeu8" r="276.400000" transform="matrix(1 0 0 1 393.10000000000002 391.19999999999999)" fill="none" stroke="rgb(57,181,74)" stroke-width="5" stroke-miterlimit="10"/><circle id="eai96hncsfeu9" r="340.400000" transform="matrix(1 0 0 1 393.10000000000002 396.30000000000001)" fill="none" stroke="rgb(57,181,74)" stroke-width="5" stroke-miterlimit="10"/><image id="eai96hncsfeu10" width="92" height="93" xlink:href="442121F4.png" preserveAspectRatio="xMidYMid meet" transform="matrix(0.24000000000000 0 0 0.24000000000000 107.77000000000000 186.13999999999999)" opacity="0.95"/><circle id="eai96hncsfeu11" r="8" transform="matrix(1 0 0 1 118.80000000000000 197.30000000000001)" fill="rgb(57,181,74)" stroke="none" stroke-width="1"/><image id="eai96hncsfeu12" width="226" height="226" xlink:href="442121FB.png" preserveAspectRatio="xMidYMid meet" transform="matrix(0.24000000000000 0 0 0.24000000000000 199.33000000000001 208.34000000000000)" opacity="0.95"/><circle id="eai96hncsfeu13" r="14.900000" transform="matrix(1 0 0 1 226.40000000000001 235.40000000000001)" fill="rgb(57,181,74)" stroke="none" stroke-width="1"/><image id="eai96hncsfeu14" width="75" height="75" xlink:href="442121FC.png" preserveAspectRatio="xMidYMid meet" transform="matrix(0.24000000000000 0 0 0.24000000000000 511.69000000000000 166.94000000000000)" opacity="0.95"/><circle id="eai96hncsfeu15" r="5.800000" transform="matrix(1 0 0 1 520.60000000000002 175.80000000000001)" fill="rgb(57,181,74)" stroke="none" stroke-width="1"/><image id="eai96hncsfeu16" width="73" height="74" xlink:href="442121FD.png" preserveAspectRatio="xMidYMid meet" transform="matrix(0.24000000000000 0 0 0.24000000000000 332.17000000000002 66.62000000000000)" opacity="0.95"/><circle id="eai96hncsfeu17" r="5.600000" transform="matrix(1 0 0 1 340.80000000000001 75.30000000000000)" fill="rgb(57,181,74)" stroke="none" stroke-width="1"/><image id="eai96hncsfeu18" width="92" height="94" xlink:href="442121FA.png" preserveAspectRatio="xMidYMid meet" transform="matrix(0.24000000000000 0 0 0.24000000000000 643.92999999999995 219.74000000000001)" opacity="0.95"/><circle id="eai96hncsfeu19" r="8" transform="matrix(1 0 0 1 654.89999999999998 230.90000000000001)" fill="rgb(57,181,74)" stroke="none" stroke-width="1"/><image id="eai96hncsfeu20" width="74" height="72" xlink:href="442121F9.png" preserveAspectRatio="xMidYMid meet" transform="matrix(0.24000000000000 0 0 0.24000000000000 679.21000000000004 358.69999999999999)" opacity="0.95"/><circle id="eai96hncsfeu21" r="5.600000" transform="matrix(1 0 0 1 687.89999999999998 367.39999999999998)" fill="rgb(57,181,74)" stroke="none" stroke-width="1"/><image id="eai96hncsfeu22" width="72" height="72" xlink:href="442121E8.png" preserveAspectRatio="xMidYMid meet" transform="matrix(0.24000000000000 0 0 0.24000000000000 156.49000000000001 542.53999999999996)" opacity="0.95"/><circle id="eai96hncsfeu23" r="5.600000" transform="matrix(1 0 0 1 165.09999999999999 551.20000000000005)" fill="rgb(57,181,74)" stroke="none" stroke-width="1"/><image id="eai96hncsfeu24" width="73" height="74" xlink:href="442121E9.png" preserveAspectRatio="xMidYMid meet" transform="matrix(0.24000000000000 0 0 0.24000000000000 597.61000000000001 628.22000000000003)" opacity="0.95"/><circle id="eai96hncsfeu25" r="5.600000" transform="matrix(1 0 0 1 606.20000000000005 637)" fill="rgb(57,181,74)" stroke="none" stroke-width="1"/></g><g id="eai96hncsfeu26_tr" transform="translate(392.100006,391.200012) rotate(0)"><g id="eai96hncsfeu26" transform="translate(-392.100006,-391.200012)"><ellipse id="eai96hncsfeu27" rx="392.100000" ry="391.200000" transform="matrix(1 0 0 1 392.10000000000002 391.19999999999999)" opacity="0.17" fill="rgb(17,0,127)" stroke="none" stroke-width="1"/><path id="eai96hncsfeu28" d="M391.900000,397.500000L6.400000,394C6.400000,394,0.400000,138.400000,248,34.700000C506.700000,-65.300000,666.700000,118,666.700000,118L391.900000,397.500000Z" fill="url(#eai96hncsfeu28-fill)" stroke="none" stroke-width="1"/><path id="eai96hncsfeu29" d="M669.100000,120.300000L391.900000,397.500000L669.100000,120.300000Z" fill="rgb(57,181,74)" stroke="none" stroke-width="1"/><path id="eai96hncsfeu30" d="M669.100000,120.300000L391.900000,397.500000L669.100000,120.300000Z" fill="none" stroke="rgb(57,181,74)" stroke-width="7" stroke-miterlimit="10"/></g></g><g id="eai96hncsfeu31"><g id="eai96hncsfeu32"><path id="eai96hncsfeu33" d="M89.600000,484.900000C83.200000,481.500000,78.100000,476.700000,74.400000,470.600000C70.700000,464.500000,68.900000,457.600000,68.900000,449.800000C68.900000,442.100000,70.700000,435.100000,74.400000,429C78.100000,422.900000,83.100000,418.100000,89.600000,414.700000C96,411.300000,103.300000,409.600000,111.400000,409.600000C118.500000,409.600000,124.800000,410.900000,130.500000,413.400000C136.200000,415.900000,140.900000,419.500000,144.600000,424.200000L130.700000,436.800000C125.700000,430.800000,119.600000,427.700000,112.500000,427.700000C108.300000,427.700000,104.600000,428.600000,101.300000,430.500000C98,432.300000,95.500000,434.900000,93.700000,438.300000C91.900000,441.700000,91,445.500000,91,449.800000C91,454.100000,91.900000,458,93.700000,461.300000C95.500000,464.700000,98,467.200000,101.300000,469.100000C104.600000,470.900000,108.300000,471.900000,112.500000,471.900000C119.600000,471.900000,125.700000,468.900000,130.700000,462.800000L144.600000,475.400000C140.800000,480.100000,136.100000,483.700000,130.500000,486.200000C124.800000,488.700000,118.500000,490,111.400000,490C103.300000,490,96.100000,488.300000,89.600000,484.900000Z" fill="rgb(255,255,255)" stroke="none" stroke-width="1"/><path id="eai96hncsfeu34" d="M162.400000,480.700000C156,474.400000,152.800000,465.600000,152.800000,454.100000L152.800000,411.200000L174.700000,411.200000L174.700000,453.400000C174.700000,465.800000,179.600000,472,189.400000,472C199.100000,472,204,465.800000,204,453.400000L204,411.200000L225.500000,411.200000L225.500000,454C225.500000,465.500000,222.300000,474.400000,215.900000,480.600000C209.500000,486.900000,200.600000,490,189.100000,490C177.700000,490,168.800000,486.900000,162.400000,480.700000Z" fill="rgb(255,255,255)" stroke="none" stroke-width="1"/><path id="eai96hncsfeu35" d="M249.300000,487.700000C243.400000,486.200000,238.600000,484.100000,234.900000,481.500000L242.100000,465.400000C245.600000,467.700000,249.600000,469.500000,254.100000,470.900000C258.700000,472.300000,263.200000,473,267.600000,473C276,473,280.200000,470.900000,280.200000,466.700000C280.200000,464.500000,279,462.900000,276.600000,461.800000C274.200000,460.700000,270.400000,459.600000,265.100000,458.400000C259.300000,457.100000,254.400000,455.800000,250.500000,454.400000C246.600000,453,243.200000,450.700000,240.400000,447.500000C237.600000,444.300000,236.200000,440.100000,236.200000,434.700000C236.200000,430,237.500000,425.700000,240.100000,421.900000C242.700000,418.100000,246.500000,415.100000,251.600000,412.900000C256.700000,410.700000,263,409.600000,270.400000,409.600000C275.500000,409.600000,280.500000,410.200000,285.400000,411.300000C290.300000,412.400000,294.700000,414.100000,298.400000,416.300000L291.700000,432.500000C284.300000,428.500000,277.200000,426.500000,270.300000,426.500000C266,426.500000,262.800000,427.100000,260.800000,428.400000C258.800000,429.700000,257.800000,431.400000,257.800000,433.400000C257.800000,435.500000,259,437,261.300000,438C263.700000,439,267.400000,440.100000,272.700000,441.200000C278.600000,442.500000,283.500000,443.800000,287.300000,445.200000C291.200000,446.600000,294.500000,448.900000,297.400000,452C300.200000,455.100000,301.700000,459.400000,301.700000,464.800000C301.700000,469.400000,300.400000,473.600000,297.800000,477.400000C295.200000,481.200000,291.400000,484.200000,286.200000,486.400000C281,488.600000,274.800000,489.800000,267.400000,489.800000C261.300000,490,255.200000,489.300000,249.300000,487.700000Z" fill="rgb(255,255,255)" stroke="none" stroke-width="1"/><path id="eai96hncsfeu36" d="M363.600000,473.500000L330.900000,473.500000L324.800000,488.500000L302.500000,488.500000L336.600000,411.200000L358.100000,411.200000L392.300000,488.500000L369.500000,488.500000L363.600000,473.500000ZM357.200000,457.300000L347.300000,432.600000L337.400000,457.300000L357.200000,457.300000Z" fill="rgb(255,255,255)" stroke="none" stroke-width="1"/><path id="eai96hncsfeu37" d="M411.200000,428.500000L387.400000,428.500000L387.400000,411.200000L456.700000,411.200000L456.700000,428.500000L433.100000,428.500000L433.100000,488.500000L411.200000,488.500000L411.200000,428.500000Z" fill="rgb(255,255,255)" stroke="none" stroke-width="1"/></g><g id="eai96hncsfeu38"><path id="eai96hncsfeu39" d="M378.300000,569.900000L378.300000,584.100000L326.100000,584.100000L326.100000,519L377.100000,519L377.100000,533.200000L344.300000,533.200000L344.300000,544.200000L373.200000,544.200000L373.200000,558L344.300000,558L344.300000,569.900000L378.300000,569.900000Z" fill="rgb(57,181,74)" stroke="none" stroke-width="1"/><path id="eai96hncsfeu40" d="M453.600000,519.100000L425.700000,584.200000L407.600000,584.200000L379.800000,519.100000L399.700000,519.100000L417.400000,561.500000L435.400000,519.100000L453.600000,519.100000Z" fill="rgb(57,181,74)" stroke="none" stroke-width="1"/><path id="eai96hncsfeu41" d="M509.700000,569.900000L509.700000,584.100000L457.500000,584.100000L457.500000,519L508.500000,519L508.500000,533.200000L475.700000,533.200000L475.700000,544.200000L504.600000,544.200000L504.600000,558L475.700000,558L475.700000,569.900000L509.700000,569.900000Z" fill="rgb(57,181,74)" stroke="none" stroke-width="1"/><path id="eai96hncsfeu42" d="M581.800000,519.100000L581.800000,584.200000L566.600000,584.200000L538,549.500000L538,584.200000L520,584.200000L520,519.100000L535.200000,519.100000L563.900000,553.800000L563.900000,519.100000L581.800000,519.100000Z" fill="rgb(57,181,74)" stroke="none" stroke-width="1"/><path id="eai96hncsfeu43" d="M608.700000,533.600000L588.700000,533.600000L588.700000,519L647,519L647,533.600000L627.100000,533.600000L627.100000,584.100000L608.700000,584.100000L608.700000,533.600000Z" fill="rgb(57,181,74)" stroke="none" stroke-width="1"/><path id="eai96hncsfeu44" d="M661.200000,583.500000C656.200000,582.200000,652.200000,580.500000,649.100000,578.300000L655.100000,564.700000C658,566.600000,661.400000,568.200000,665.200000,569.300000C669,570.500000,672.800000,571.100000,676.500000,571.100000C683.600000,571.100000,687.100000,569.300000,687.100000,565.800000C687.100000,563.900000,686.100000,562.600000,684.100000,561.700000C682.100000,560.800000,678.800000,559.900000,674.400000,558.900000C669.500000,557.800000,665.400000,556.700000,662.100000,555.500000C658.800000,554.300000,656,552.400000,653.600000,549.700000C651.200000,547,650.100000,543.400000,650.100000,538.900000C650.100000,534.900000,651.200000,531.400000,653.400000,528.200000C655.600000,525,658.800000,522.500000,663.100000,520.600000C667.400000,518.700000,672.700000,517.800000,679,517.800000C683.300000,517.800000,687.500000,518.300000,691.600000,519.200000C695.800000,520.200000,699.400000,521.600000,702.600000,523.400000L696.900000,537.100000C690.700000,533.800000,684.700000,532.100000,678.900000,532.100000C675.200000,532.100000,672.600000,532.600000,670.900000,533.700000C669.200000,534.800000,668.400000,536.200000,668.400000,537.900000C668.400000,539.600000,669.400000,540.900000,671.400000,541.800000C673.400000,542.700000,676.600000,543.600000,681,544.500000C686,545.600000,690.100000,546.700000,693.300000,547.900000C696.600000,549.100000,699.400000,551,701.800000,553.700000C704.200000,556.300000,705.400000,559.900000,705.400000,564.400000C705.400000,568.300000,704.300000,571.800000,702.100000,575C699.900000,578.200000,696.700000,580.700000,692.300000,582.600000C688,584.500000,682.700000,585.400000,676.500000,585.400000C671.300000,585.400000,666.200000,584.800000,661.200000,583.500000Z" fill="rgb(57,181,74)" stroke="none" stroke-width="1"/></g><g id="eai96hncsfeu45"><path id="eai96hncsfeu46" d="M192,661.500000L181.200000,661.500000L181.200000,680.200000L161.300000,680.200000L161.300000,610L193.400000,610C199.800000,610,205.300000,611.100000,210,613.200000C214.700000,615.300000,218.300000,618.300000,220.800000,622.200000C223.300000,626.100000,224.600000,630.700000,224.600000,636C224.600000,641.100000,223.400000,645.500000,221,649.300000C218.600000,653.100000,215.200000,656,210.800000,658.200000L225.900000,680.300000L204.600000,680.300000L192,661.500000ZM201.500000,628.300000C199.400000,626.500000,196.400000,625.600000,192.300000,625.600000L181.300000,625.600000L181.300000,646.200000L192.300000,646.200000C196.400000,646.200000,199.500000,645.300000,201.500000,643.500000C203.600000,641.700000,204.600000,639.200000,204.600000,635.900000C204.600000,632.600000,203.500000,630.100000,201.500000,628.300000Z" fill="rgb(255,255,255)" stroke="none" stroke-width="1"/><path id="eai96hncsfeu47" d="M282.600000,666.500000L252.900000,666.500000L247.400000,680.100000L227.100000,680.100000L258.100000,609.900000L277.700000,609.900000L308.800000,680.100000L288.100000,680.100000L282.600000,666.500000ZM276.800000,651.900000L267.800000,629.400000L258.800000,651.900000L276.800000,651.900000Z" fill="rgb(255,255,255)" stroke="none" stroke-width="1"/><path id="eai96hncsfeu48" d="M314.400000,609.900000L347.600000,609.900000C355.300000,609.900000,362.100000,611.300000,368.100000,614.200000C374.100000,617.100000,378.700000,621.200000,381.900000,626.400000C385.200000,631.700000,386.800000,637.900000,386.800000,645C386.800000,652.100000,385.200000,658.300000,381.900000,663.600000C378.600000,668.900000,374,673,368.100000,675.800000C362.100000,678.700000,355.300000,680.100000,347.600000,680.100000L314.400000,680.100000L314.400000,609.900000ZM346.800000,664.300000C352.800000,664.300000,357.600000,662.600000,361.300000,659.200000C364.900000,655.800000,366.800000,651.100000,366.800000,645.100000C366.800000,639.100000,365,634.400000,361.300000,631C357.700000,627.600000,352.800000,625.900000,346.800000,625.900000L334.300000,625.900000L334.300000,664.400000L346.800000,664.400000Z" fill="rgb(255,255,255)" stroke="none" stroke-width="1"/><path id="eai96hncsfeu49" d="M443.300000,666.500000L413.600000,666.500000L408.100000,680.100000L387.800000,680.100000L418.800000,609.900000L438.400000,609.900000L469.500000,680.100000L448.800000,680.100000L443.300000,666.500000ZM437.500000,651.900000L428.500000,629.400000L419.500000,651.900000L437.500000,651.900000Z" fill="rgb(255,255,255)" stroke="none" stroke-width="1"/><path id="eai96hncsfeu50" d="M505.800000,661.500000L495,661.500000L495,680.200000L475.100000,680.200000L475.100000,610L507.200000,610C513.600000,610,519.100000,611.100000,523.800000,613.200000C528.500000,615.300000,532.100000,618.300000,534.600000,622.200000C537.100000,626.100000,538.400000,630.700000,538.400000,636C538.400000,641.100000,537.200000,645.500000,534.800000,649.300000C532.400000,653.100000,529,656,524.600000,658.200000L539.700000,680.300000L518.400000,680.300000L505.800000,661.500000ZM515.200000,628.300000C513.100000,626.500000,510,625.600000,506,625.600000L495,625.600000L495,646.200000L506,646.200000C510.100000,646.200000,513.200000,645.300000,515.200000,643.500000C517.300000,641.700000,518.300000,639.200000,518.300000,635.900000C518.400000,632.600000,517.300000,630.100000,515.200000,628.300000Z" fill="rgb(255,255,255)" stroke="none" stroke-width="1"/></g></g></g></g></svg>